<svg width="1440" height="38" viewBox="0 0 1440 38" fill="none" xmlns="http://www.w3.org/2000/svg">
<path d="M1415.17 1.68691C1413.32 1.73448 1411.48 2.32035 1411.1 0.663902C1408.63 -1.34135 1406.29 1.83413 1404.1 1.84621C1401.91 0.518944 1399.86 6.49091 1397.96 2.31129C1396.06 2.59667 1394.3 1.37134 1392.7 3.3849C1391.09 2.67294 1389.64 4.83522 1388.34 4.56493C1385.74 6.43051 1383.75 4.25085 1382.42 5.69893C1382.42 5.70119 1382.42 5.70271 1382.41 5.70497C1378.78 5.50414 1375.17 6.0062 1371.63 6.33991C1371.39 6.25384 1371.15 6.17986 1370.91 6.06963C1369.39 5.64608 1368.03 6.98543 1366.82 5.11532C1365.63 1.59103 1364.56 4.84126 1363.61 4.49472C1361.72 3.72538 1360.29 3.3713 1359.1 3.35167C1357.89 2.64726 1356.94 8.21682 1355.95 3.25126C1354.99 5.55247 1354.01 3.89526 1352.8 4.16026C1351.58 5.54416 1350.13 4.01001 1348.21 5.52226C1347.9 6.06132 1348.03 6.63511 1348.65 7.24816C1349.27 7.86046 1344.11 9.30476 1345.86 10.0069C1338.79 10.2236 1329.6 7.76684 1329.6 7.76684C1330.34 9.46127 1331.13 11.126 1331.91 12.7824L1332.13 13.2443C1331.86 13.2526 1331.59 13.2677 1331.32 13.2662L1331.29 13.2654C1330.8 13.2624 1330.3 13.242 1329.81 13.2043C1328.24 13.0858 1326.67 12.7845 1325.1 12.1813C1320.36 12.6622 1315.61 12.5995 1310.89 12.3481C1309.96 12.2983 1309.04 12.2424 1308.11 12.1813C1299.34 11.5992 1290.62 10.595 1281.92 11.3878C1279.1 10.3414 1276.3 9.40594 1273.48 8.63207L1273.46 8.62451C1262.02 5.47922 1250.62 5.07078 1239.22 11.2179C1239.18 11.2375 1239.15 11.2557 1239.11 11.2753C1238.74 11.4761 1238.38 11.6543 1238.02 11.8279C1237.69 11.9812 1237.37 12.1254 1237.04 12.2613C1235.22 13.014 1233.4 13.4549 1231.57 13.6588C1230.24 13.8098 1228.89 13.837 1227.55 13.772C1226.2 13.7064 1224.86 13.5501 1223.52 13.3357C1222.5 13.1733 1221.49 12.9816 1220.48 12.7702C1219.42 12.5505 1218.37 12.3134 1217.33 12.0733L1216.91 11.9772C1210.07 10.4097 1203.23 8.84216 1196.38 11.8423C1190.38 11.6332 1184.38 12.7135 1178.37 13.6603C1177.23 13.84 1176.09 14.0166 1174.95 14.1767C1168.27 15.1159 1161.58 15.5553 1154.85 13.5478C1154.38 13.4051 1153.9 13.2526 1153.42 13.0827C1153.23 13.1982 1153.04 13.3379 1152.84 13.4965C1152.7 13.6052 1152.57 13.7328 1152.44 13.8596C1152.38 13.9155 1152.33 13.9615 1152.26 14.0204C1152.08 14.2062 1151.89 14.41 1151.7 14.6237C1151.7 14.6267 1151.69 14.629 1151.69 14.632C1150.93 15.5078 1150.17 16.5866 1149.41 17.6836C1149.34 17.7825 1149.28 17.8799 1149.2 17.9796L1148.69 18.7217C1148.66 18.7519 1148.64 18.7814 1148.63 18.8108C1148.45 19.0698 1148.26 19.3257 1148.08 19.5764C1147.9 19.8284 1147.71 20.0785 1147.52 20.3269L1147.44 20.4348C1147.27 20.6598 1147.09 20.8772 1146.92 21.0856L1146.83 21.1815C1146.65 21.3969 1146.46 21.6074 1146.26 21.8127C1146.09 21.9901 1145.91 22.1517 1145.74 22.3004C1145.72 22.3193 1145.69 22.3389 1145.67 22.357C1145.49 22.502 1145.32 22.6273 1145.14 22.7383C1145.11 22.7587 1145.08 22.7798 1145.04 22.7994C1144.87 22.9021 1144.7 22.9889 1144.52 23.0546C1144.49 23.0652 1144.47 23.0728 1144.44 23.0818C1144.26 23.1437 1144.08 23.189 1143.89 23.2026C1143.76 23.2147 1143.61 23.2049 1143.48 23.1822L1143.38 23.1656C1143.24 23.1362 1143.11 23.0977 1142.98 23.0395C1142.96 23.0342 1142.95 23.0252 1142.94 23.0184C1142.81 22.9633 1142.69 22.8938 1142.56 22.8168C1142.53 22.7942 1142.5 22.7723 1142.46 22.7481C1142.33 22.659 1142.19 22.5609 1142.07 22.4506C1142.04 22.4272 1142.01 22.4008 1141.99 22.3766C1141.87 22.2808 1141.76 22.1766 1141.65 22.0671C1141.61 22.0263 1141.57 21.9878 1141.53 21.9463C1141.41 21.8157 1141.28 21.6783 1141.15 21.5341C1141.11 21.487 1141.07 21.4386 1141.03 21.3907L1141.03 21.3846C1140.93 21.2744 1140.84 21.1619 1140.74 21.0456C1140.7 20.9814 1140.64 20.9188 1140.59 20.8538C1140.48 20.7081 1140.37 20.5586 1140.25 20.4046C1140.18 20.3065 1140.1 20.2045 1140.03 20.1019C1139.98 20.0369 1139.94 19.9705 1139.89 19.9033C1137.99 17.2503 1136.09 13.9449 1134.21 13.8113C1130.07 12.6697 1125.95 14.8456 1121.83 14.6569C1120.71 14.2303 1119.57 14.0083 1118.45 13.883H1118.44C1115.46 13.5546 1112.48 13.9321 1109.5 13.2216C1107.83 13.8166 1106.17 13.772 1104.52 13.4602C1102.9 13.156 1101.27 12.5973 1099.65 12.1163C1099.53 12.0801 1099.41 12.0469 1099.3 12.0129C1099.16 11.9706 1099 11.9291 1098.86 11.8891C1098.68 11.8408 1098.51 11.7947 1098.33 11.7487L1098.02 11.6694C1097.74 11.5992 1097.44 11.5358 1097.16 11.4799C1093.04 10.9839 1088.92 12.8207 1084.79 12.4372C1084.46 12.5354 1084.13 12.6086 1083.79 12.6637C1083.67 12.6833 1083.56 12.6909 1083.45 12.7045C1083.23 12.7339 1083 12.7641 1082.78 12.7785C1082.65 12.7868 1082.52 12.7845 1082.39 12.7883L1082.31 12.7903C1082.13 12.7951 1081.95 12.7997 1081.77 12.7951C1081.64 12.7913 1081.51 12.78 1081.36 12.7724C1081.16 12.7619 1080.96 12.7505 1080.76 12.7301C1080.62 12.7173 1080.49 12.6992 1080.36 12.6841L1080.24 12.6688C1080.07 12.6475 1079.89 12.6257 1079.73 12.5995C1079.6 12.5799 1079.49 12.5595 1079.37 12.5399C1079.14 12.5006 1078.9 12.4599 1078.66 12.4146C1078.58 12.398 1078.49 12.3813 1078.42 12.3647C1077.31 12.1443 1076.22 11.8846 1075.11 11.6694C1075.05 11.6573 1074.99 11.6475 1074.93 11.6354C1074.67 11.5856 1074.41 11.5403 1074.15 11.498L1073.88 11.4587C1073.64 11.4225 1073.39 11.3893 1073.14 11.3629C1073.05 11.3515 1072.95 11.3455 1072.84 11.3349C1072.6 11.3138 1072.38 11.2949 1072.14 11.2843C1072.04 11.2798 1071.92 11.2813 1071.82 11.2791C1071.59 11.2745 1071.35 11.2723 1071.13 11.2798C1071.01 11.2843 1070.91 11.2972 1070.81 11.3047L1070.8 11.3051C1070.57 11.3208 1070.34 11.3359 1070.1 11.3674C1070.01 11.3802 1069.92 11.4021 1069.83 11.418C1069.24 11.5139 1068.66 11.6513 1068.08 11.8695C1065.96 10.583 1063.85 9.72453 1061.72 9.23907L1061.71 9.23757C1061.38 9.16056 1061.05 9.08959 1060.71 9.03297C1060.64 9.01938 1060.57 9.01107 1060.49 8.99899L1060.45 8.99153C1060.19 8.95019 1059.93 8.90886 1059.67 8.87895C1056.11 8.47201 1052.54 9.10923 1048.97 10.6275C1042.59 7.62794 1036.19 7.78572 1029.78 9.47615C1024.02 9.32817 1015.4 9.98803 1006.51 10.4259C1005.41 10.4803 1004.31 10.5324 1003.2 10.5769L1003.15 10.5799C1001.95 10.6275 1000.74 10.6713 999.54 10.7053C991.027 10.9484 982.85 10.7385 977.28 9.15905C974.781 10.1934 972.932 11.7758 971.598 13.3289L971.59 13.3372C970.511 14.6001 969.637 15.9663 968.986 17.4035C968.978 17.4224 968.966 17.4435 968.958 17.4609C968.909 17.5689 968.869 17.6595 968.833 17.7448C968.83 17.7507 968.828 17.7579 968.825 17.7647L968.821 17.775C968.728 18 968.681 18.1374 968.681 18.1374C968.681 18.1374 968.696 18.0098 968.717 17.7946C968.721 17.7667 968.721 17.7236 968.725 17.6942L968.73 17.594C968.733 17.5385 968.736 17.4799 968.741 17.4141V17.2812C968.744 17.1506 968.744 17.0117 968.744 16.8577C968.744 16.8184 968.741 16.7784 968.741 16.7361C968.737 16.5595 968.724 16.3707 968.708 16.1699C968.705 16.1412 968.705 16.1133 968.701 16.0853C968.681 15.8513 968.653 15.6067 968.612 15.3485C968.359 13.7607 967.648 11.8136 965.864 10.3519C965.787 10.287 965.707 10.2243 965.626 10.1617C965.477 10.053 965.329 9.94802 965.173 9.84609C965.024 9.7487 964.863 9.65734 964.702 9.56675C964.578 9.49729 964.457 9.42481 964.32 9.35912C963.995 9.19611 963.656 9.05228 963.304 8.92878C963.018 8.91217 962.685 8.91444 962.332 8.92727C962.227 8.93029 962.114 8.93708 961.998 8.94237C961.725 8.95747 961.44 8.97634 961.13 9.00428C960.604 9.05119 960.078 9.10707 959.555 9.17188L959.483 9.18019C954.52 9.79777 947.186 11.2504 942.11 10.823C940.339 10.6736 938.827 10.3081 937.811 9.57958C936.047 11.4353 934.294 12.3655 932.543 12.7135C931.81 12.8568 931.053 12.9065 930.3 12.8608L930.192 12.854C929.858 12.8328 929.521 12.7951 929.183 12.7422C929.156 12.7371 929.129 12.7333 929.102 12.7295L929.075 12.7256C928.318 12.5964 927.575 12.4161 926.856 12.1866C926.499 12.0751 926.145 11.9555 925.796 11.8279C925.428 11.6947 925.062 11.5576 924.699 11.4165C924.619 11.3855 924.546 11.3561 924.466 11.3259C924.125 11.1907 923.779 11.0518 923.437 10.9114C923.188 11.1318 922.943 11.313 922.698 11.4882C922.613 11.5471 922.529 11.6105 922.445 11.6649C918.012 14.5459 913.576 10.6773 909.1 12.5505C908.81 13.0186 908.633 13.9336 908.513 15.0593C908.463 15.5187 908.424 15.9788 908.396 16.4394C908.312 17.701 908.264 19.0819 908.203 20.3442L908.167 20.9701C908.147 21.3194 908.121 21.6685 908.09 22.0173C907.974 23.4291 907.785 24.4551 907.408 24.5842C906.109 25.0282 904.555 23.6752 902.927 21.7696C902.006 20.6877 901.055 19.4314 900.118 18.2189C899.945 17.9962 899.773 17.7765 899.6 17.5583C899.552 17.4972 899.504 17.4375 899.459 17.3764C899.255 17.1212 899.053 16.8705 898.852 16.6266L898.845 16.6199C898.635 16.3639 898.426 16.117 898.218 15.8777C898.189 15.849 898.166 15.8211 898.141 15.7931C896.819 14.293 895.557 13.2232 894.461 13.2775C890.458 14.2666 886.383 11.7879 882.208 12.3006L882.18 12.3028C881.891 12.3391 881.597 12.3949 881.308 12.4629C881.259 12.4735 881.22 12.478 881.171 12.4901C880.91 12.555 880.645 12.6456 880.383 12.7407C880.312 12.7664 880.243 12.7815 880.171 12.8094C879.837 12.94 879.504 13.0941 879.17 13.2783C878.596 13.0084 878.005 12.76 877.402 12.5339C876.808 12.3115 876.199 12.1164 875.578 11.9495L875.574 11.9472C871.463 10.8412 867.248 11.1915 862.896 13.6505C857.571 12.8774 852.267 14.5534 846.967 14.481C846.061 14.4696 845.157 14.3979 844.266 14.2666L844.259 14.265C843.736 14.1875 843.219 14.0854 842.711 13.9593C842.57 13.9252 842.431 13.8861 842.29 13.8467L842.16 13.8105C841.803 13.7079 841.449 13.6044 841.092 13.4723C840.782 13.3289 840.477 13.2073 840.168 13.0956C840.071 13.0623 839.978 13.0329 839.887 13.0019C839.665 12.9295 839.44 12.863 839.219 12.8049C838.878 12.7139 838.531 12.6395 838.178 12.5822C838.118 12.5731 838.058 12.5588 837.998 12.5497C837.688 12.5037 837.378 12.4704 837.065 12.4485C837.001 12.4432 836.932 12.4417 836.869 12.438C836.619 12.4244 836.375 12.4161 836.121 12.4146C835.787 12.4136 835.453 12.4232 835.121 12.4433C835.052 12.4463 834.987 12.4485 834.919 12.4538C834.281 12.4984 833.638 12.5761 832.999 12.6765L832.858 12.6999C832.56 12.7475 832.268 12.7996 831.974 12.8547L831.901 12.8683C830.764 13.085 829.627 13.347 828.49 13.5924C827.264 13.8558 826.043 14.0967 824.821 14.2296C821.478 14.9257 818.135 14.9498 814.791 14.5701C814.129 14.4946 813.465 14.4025 812.802 14.2975C811.524 14.0916 810.257 13.8438 809.005 13.5546C808.864 13.5221 808.72 13.495 808.579 13.4602C808.249 13.5002 807.923 13.5546 807.599 13.6195L807.574 13.6241C807.257 13.689 806.94 13.7645 806.626 13.846L806.569 13.8619C806.264 13.9419 805.962 14.0302 805.661 14.1223L805.627 14.1326C805.599 14.141 805.571 14.149 805.548 14.1571C805.272 14.2416 805.002 14.3307 804.733 14.4213C800.707 15.7637 796.676 17.5983 792.646 14.5897C792.537 14.5104 792.433 14.4342 792.329 14.3481C787.819 10.4108 783.307 9.7419 778.786 12.1382L778.77 12.1503C778.429 12.33 778.091 12.5271 777.754 12.7407C777.151 13.1202 776.579 13.5281 776.038 13.9623C768.784 12.0899 761.511 15.4579 754.193 14.6954C750.339 14.4757 746.506 15.097 742.688 15.5576L742.034 15.6331C741.789 15.6603 741.543 15.6897 741.294 15.7169C740.84 15.7645 740.386 15.8082 739.932 15.8467C739.772 15.8603 739.602 15.8701 739.442 15.8822C739.124 15.9071 738.807 15.9283 738.49 15.9457C738.344 15.9534 738.2 15.9593 738.057 15.9651L737.943 15.9698C737.637 15.9826 737.332 15.9909 737.03 15.994C736.526 16.0023 736.021 15.9967 735.516 15.9774C735.359 15.9721 735.203 15.9691 735.046 15.96C734.567 15.9351 734.085 15.8988 733.611 15.8445C731.281 15.5302 728.932 15.3102 726.574 15.1854H726.571C722.13 14.9581 717.707 15.1461 713.298 16.0347C707.226 17.4262 701.187 14.7105 695.158 15.9902C694.99 16.0242 694.825 16.0604 694.657 16.1004C694.512 16.1374 694.363 16.1759 694.218 16.219C693.865 16.3171 693.516 16.4251 693.161 16.5572C686.475 16.5678 679.804 17.0472 673.129 16.9906L672.843 17.0613C672.339 17.1862 671.833 17.3116 671.325 17.4322C670.682 17.5884 670.035 17.7346 669.384 17.8709C669.365 17.8741 669.346 17.878 669.326 17.882L669.276 17.8928C668.019 18.1487 666.76 18.3465 665.499 18.4137C663.594 18.5164 661.697 18.3254 659.797 17.5991C656.839 16.188 653.878 16.3586 650.912 16.7807L650.89 16.7838C650.868 16.787 650.849 16.7897 650.827 16.792C650.317 16.8652 649.81 16.9445 649.305 17.0245C648.879 17.0917 648.453 17.1589 648.023 17.2223L647.826 17.2525C647.364 17.3197 646.905 17.3839 646.447 17.4368C645.616 17.3899 644.784 17.3295 643.952 17.2684C640.323 17.0057 636.695 16.6591 633.058 16.5474C632.029 16.6153 630.997 16.7573 629.968 16.9234L629.896 16.9339C629.375 17.0194 628.857 17.1086 628.334 17.1988L628.171 17.2269C627.834 17.2865 627.492 17.3462 627.151 17.4035L626.833 17.4564C626.416 17.5251 626.002 17.5915 625.588 17.6504C625.556 17.6549 625.524 17.661 625.487 17.6655C625.057 17.7252 624.623 17.7765 624.193 17.8203L623.964 17.8422C623.543 17.8807 623.117 17.9079 622.694 17.9222L622.442 17.929C622.016 17.9381 621.586 17.9343 621.159 17.9109C621.091 17.9079 621.027 17.9011 620.962 17.8965C620.513 17.8663 620.054 17.821 619.605 17.7463C618.335 17.3733 617.06 16.9664 615.79 16.6282C615.783 16.6267 615.779 16.6244 615.771 16.6236C615.521 16.5564 615.269 16.4923 615.015 16.4326C615.015 16.4326 615.015 16.4311 615.011 16.4311C612.034 15.7169 609.052 15.4972 606.062 17.1378C605.536 17.6874 605.013 18.0974 604.487 18.4031C604.403 18.4537 604.315 18.5013 604.226 18.5466C602.868 19.245 601.509 19.2465 600.147 18.9935C599.825 18.9347 599.504 18.8607 599.182 18.7799C598.776 18.6743 598.371 18.5631 597.969 18.4462L597.402 18.2839L597.218 18.2325C596.916 18.1487 596.615 18.0687 596.309 17.997L596.277 17.9879C595.964 17.9147 595.654 17.852 595.346 17.8037C595.322 17.7992 595.297 17.7962 595.273 17.7946C594.984 17.7493 594.694 17.7184 594.4 17.7048L594.3 17.701C594.011 17.6912 593.721 17.7002 593.433 17.7297C593.404 17.7327 593.376 17.7342 593.352 17.738C593.039 17.775 592.725 17.8346 592.412 17.9305C588.94 15.5334 585.463 16.7527 581.992 18.1027C581.048 18.4681 580.112 18.8395 579.175 19.1551C576.675 19.9954 574.176 20.4205 571.676 19.1332C571.671 19.1305 571.667 19.1274 571.664 19.1245L571.66 19.1211C571.452 19.0147 571.246 18.8931 571.038 18.761L570.836 18.6274C570.68 18.5217 570.523 18.4084 570.367 18.2869C570.306 18.2378 570.242 18.1902 570.177 18.1396C569.965 17.9645 569.747 17.7795 569.531 17.5749C569.04 17.4085 568.545 17.2527 568.044 17.1076C567.941 17.0769 567.838 17.0483 567.735 17.0196L567.634 16.9913C567.252 16.8856 566.871 16.7859 566.485 16.6931C566.36 16.6636 566.235 16.6319 566.111 16.6048C565.096 16.3698 564.062 16.1872 563.017 16.0581C562.989 16.0544 562.965 16.0529 562.941 16.0491C562.434 15.9887 561.928 15.9426 561.426 15.9079L561.301 15.9011C559.69 15.7984 558.078 15.8354 556.463 16.0144L556.455 16.0151C554.144 16.2726 551.834 16.8192 549.527 17.6859C549.19 17.9517 548.857 18.1736 548.518 18.3714C544.279 20.875 540.036 18.2612 535.8 17.0744C535.797 17.0728 535.797 17.0721 535.792 17.0713C535.603 17.0185 535.41 16.9694 535.222 16.9218L535.125 16.8984C534.96 16.8592 534.799 16.8229 534.635 16.7897L534.595 16.7816C534.558 16.7739 534.522 16.7665 534.486 16.7603C534.334 16.7308 534.189 16.7052 534.04 16.6825L533.957 16.669C533.922 16.6635 533.887 16.6581 533.852 16.6531C533.714 16.6342 533.578 16.6183 533.442 16.6048C533.373 16.5972 533.305 16.5897 533.232 16.5836C533.11 16.5739 532.991 16.5686 532.866 16.5631L532.835 16.5617C532.763 16.5595 532.686 16.5549 532.614 16.5542C532.485 16.5519 532.356 16.5557 532.228 16.5595L532.184 16.5607C532.123 16.5624 532.063 16.5641 531.998 16.5678C531.893 16.5728 531.789 16.584 531.683 16.5954L531.617 16.6025C531.541 16.61 531.464 16.6161 531.388 16.6266C531.259 16.6448 531.126 16.672 530.994 16.6969C530.922 16.7112 530.85 16.7218 530.777 16.7376C530.635 16.7717 530.494 16.81 530.356 16.8524C530.295 16.8713 530.227 16.8841 530.162 16.9052C529.965 16.9702 529.761 17.0449 529.555 17.131C528.973 17.1272 528.391 17.1438 527.807 17.1687L527.39 17.1876C526.839 17.2163 526.292 17.2518 525.746 17.2971C525.585 17.3099 525.425 17.3265 525.264 17.3409C524.879 17.3756 524.488 17.4118 524.107 17.4519C520.727 17.7999 517.352 18.3005 513.972 18.262C512.518 18.2461 511.059 18.1344 509.6 17.8588C503.645 15.6248 497.681 15.3492 491.718 16.5277L491.296 16.6138C490.746 16.7286 490.195 16.8509 489.645 16.9906C488.716 16.9256 487.79 16.839 486.868 16.7308L486.587 16.6969C485.751 16.598 484.915 16.4877 484.08 16.3722C482.126 16.1019 480.177 15.8135 478.224 15.6135C478.22 15.6133 478.216 15.6131 478.213 15.6126L478.208 15.6119C476.468 15.436 474.733 15.3356 472.996 15.3824H472.985C472.488 15.3963 471.992 15.4237 471.498 15.4647C470.883 15.5115 470.271 15.5811 469.665 15.6731L469.645 15.6686H469.649C469.537 15.6354 469.424 15.6127 469.315 15.587C465.418 14.6539 461.52 17.6459 457.622 18.8788C457.16 19.0237 456.701 19.1423 456.248 19.2291L456.127 19.251C455.986 19.2752 455.854 19.2963 455.717 19.3137L455.632 19.3242C455.175 19.3771 454.72 19.3944 454.262 19.3642C454.099 19.3529 453.937 19.336 453.776 19.3137L453.74 19.3084C452.454 19.1189 451.176 18.5353 449.899 17.3575C449.81 17.2782 449.725 17.2087 449.637 17.1242C449.363 17.3123 449.089 17.4719 448.815 17.632L448.769 17.6587L448.765 17.6595C447.998 18.1095 447.23 18.4635 446.462 18.7421C446.423 18.7572 446.378 18.7754 446.334 18.7905C445.595 19.0487 444.863 19.2344 444.128 19.3642L444.114 19.3666C444.026 19.3817 443.934 19.3974 443.847 19.4103C443.199 19.5137 442.542 19.5771 441.882 19.5998C441.402 19.6165 440.922 19.6163 440.443 19.599C440.383 19.5983 440.319 19.5945 440.258 19.593C439.84 19.5756 439.423 19.5485 439.004 19.5137C438.515 19.4711 438.028 19.4205 437.541 19.362C437.453 19.3507 437.369 19.3416 437.276 19.331C436.81 19.2714 436.344 19.2072 435.879 19.1385C433.769 18.8342 431.659 18.4832 429.549 18.4107C429.316 18.3027 429.075 18.2144 428.842 18.1193L428.833 18.1162C425.551 16.7988 422.272 16.5693 418.981 16.7157L418.739 16.7271C417.678 16.7774 416.62 16.8567 415.565 16.9649C413.504 17.1597 411.442 17.3982 409.381 17.5002C405.314 17.0215 401.248 18.3427 397.188 18.1683C395.678 18.5602 394.163 18.8108 392.652 18.8811C392.596 18.8833 392.54 18.8826 392.487 18.8848C392.093 18.8999 391.695 18.8992 391.302 18.8886C390.754 18.8759 390.208 18.836 389.666 18.7693C389.57 18.7572 389.474 18.7406 389.377 18.727C388.996 18.6727 388.605 18.604 388.22 18.5217C388.14 18.5036 388.055 18.4885 387.975 18.4703C387.533 18.3692 387.099 18.2454 386.657 18.1049C386.556 18.0725 386.46 18.0377 386.356 18.003C385.905 17.8482 385.451 17.6806 384.997 17.4821C376.88 15.806 368.754 16.9739 360.633 16.6704C352.512 15.4323 344.395 15.0049 336.265 17.4904C332.657 17.1265 329.048 17.0955 325.436 17.1506H325.428C320.92 17.2208 316.414 17.4322 311.906 17.3431C305.938 19.6972 299.963 19.6617 293.992 18.7837C291.931 18.4802 289.873 18.0785 287.812 17.6383C287.719 17.6195 287.631 17.6021 287.538 17.5817C281.864 17.2472 276.194 17.6874 270.525 18.0928L270.444 18.0981L270.049 18.1254C269.527 18.1616 269.008 18.1975 268.491 18.2325C266.578 18.3616 264.665 18.4749 262.752 18.5421L262.548 18.5473C261.656 18.5768 260.764 18.5957 259.872 18.6017H259.469C258.589 18.6047 257.709 18.5919 256.829 18.5632C254.744 18.5039 252.666 18.3329 250.609 18.0513C249.921 17.9582 249.236 17.8504 248.555 17.7282C241.435 16.7686 234.311 17.5274 227.19 18.0823C222.42 18.4484 217.658 18.718 212.892 18.3276C211.781 18.2415 210.675 18.1163 209.577 17.9524C201.106 17.5545 185.555 18.2099 172.142 18.8637L171.856 18.8773C166.712 19.1287 161.922 19.3756 157.957 19.5643C157.325 19.5945 156.707 19.624 156.112 19.6511L155.91 19.6602C155.206 19.6917 154.521 19.7224 153.893 19.7493C153.293 19.9143 152.716 20.1281 152.17 20.3872C151.8 20.5624 151.463 20.7481 151.181 20.9444C151.165 20.9558 151.145 20.9656 151.128 20.9769C150.815 21.1981 150.562 21.4306 150.337 21.6692L150.241 21.7772C148.481 23.7922 149.593 26.1954 149.593 26.1954C149.593 26.1954 146.214 24.5276 142.091 22.7088C142.06 22.696 142.031 22.6824 142.003 22.6696C141.332 22.3736 140.649 22.0777 139.954 21.7817L139.918 21.7674C138.32 21.0846 136.699 20.4383 135.055 19.8293L135.039 19.824C134.495 19.6224 133.945 19.4288 133.392 19.2434C132.805 19.0411 132.21 18.8537 131.608 18.6817C119.922 18.8237 113.69 16.3279 102 16.5C101.896 12.1196 96.3822 12.0929 96.4059 12.0001C96.1446 11.9676 93.5973 12.0567 89.4176 12.2326C84.9227 12.4179 80.4286 12.6157 75.9354 12.826L75.9638 11.9933C75.9638 11.9933 71.2983 12.4953 65.9577 12.9642C65.8384 12.9612 65.7096 12.9612 65.5884 12.9604C65.3431 12.9559 65.0941 12.9514 64.8451 12.9506C64.5402 12.9491 64.2305 12.9566 63.9171 12.9627C63.7286 12.9657 63.544 12.9672 63.3546 12.974C62.8527 12.9944 62.3461 13.0246 61.8395 13.0759C61.7269 13.082 61.6142 13.1001 61.4939 13.1265C61.4617 13.1356 61.422 13.1492 61.385 13.1582C61.3055 13.1816 61.224 13.2035 61.1483 13.233C61.1038 13.2496 61.0602 13.27 61.0157 13.2896C60.9475 13.319 60.8756 13.347 60.8065 13.3832C57.158 13.652 53.7869 13.8302 51.9461 13.7449C46.5326 16.5436 54.3163 10.0492 46.1917 10.6592C38.0624 9.227 29.2541 11.0843 21.105 9.71246C12.9558 13.0057 5.4732 10.6094 0 9.22247V38H1440V4.37845C1440 4.37845 1433.95 6.16853 1426.89 6.38522C1424.25 6.50148 1422.16 4.83597 1419.34 4.72574V2.68501C1418.88 3.05269 1417.02 1.35094 1415.17 1.68691Z" fill="white"/>
</svg>
