<svg width="166" height="90" viewBox="0 0 166 90" fill="none" xmlns="http://www.w3.org/2000/svg">
<path d="M100.254 36.3926C100.317 38.3304 99.7948 39.6012 99.0505 40.7925C94.2996 48.2899 90.5147 56.2162 88.0443 64.7461C87.9018 65.2226 87.7117 65.6992 87.4583 66.1439C86.0648 68.6378 83.911 68.8919 81.9632 66.7475C80.2529 64.8573 79.2077 62.5064 78.1308 60.2667C74.9636 53.7224 70.4502 48.1629 65.731 42.7145C65.1451 42.0474 64.5116 41.4279 63.9415 40.7608C61.2177 37.5045 61.2335 36.0272 64.3058 33.0251C67.9798 29.4193 70.6719 25.2259 72.4773 20.4447C74.5201 15.0281 76.4522 9.5639 78.0358 3.98849C78.1783 3.51196 78.305 3.01954 78.4792 2.54301C79.0018 1.17696 79.8253 0.0491714 81.4406 0.00151832C83.0559 -0.0461347 83.9427 1.034 84.5286 2.38417C84.782 2.95601 85.0512 3.54373 85.1938 4.14733C87.5375 13.8527 92.3517 22.3826 97.7519 30.6424C99.003 32.5485 100.064 34.55 100.254 36.3926Z" fill="#F3C395"/>
<path d="M27.8508 58.9166C27.8824 56.3751 28.8801 54.9455 30.4954 54.0401C34.7395 51.6733 36.9724 47.8293 38.6194 43.5246C40.0605 39.7759 41.4699 36.0113 42.8952 32.2467C43.2119 31.4208 43.497 30.5789 43.877 29.8006C44.9539 27.5767 46.2208 26.7349 47.8836 27.1002C49.5622 27.4656 50.9558 29.197 51.0825 31.2778C51.1934 33.0251 51.1934 34.7724 51.4943 36.5196C52.5711 42.6351 55.0574 47.9723 59.8241 52.1657C62.7697 54.7549 63.0547 56.2321 60.9802 58.9324C56.1343 65.2544 53.7588 72.6724 51.2409 80.0428C50.6708 81.7106 50.2907 83.4261 49.3564 84.951C48.6121 86.1741 47.7886 87.286 46.1416 87.1748C44.4788 87.0636 43.7662 85.8723 43.2911 84.5221C41.5016 79.3915 39.0628 74.5944 36.244 69.9562C34.7395 67.4623 33.0134 65.175 30.6379 63.4118C28.9593 62.157 27.93 60.4732 27.8349 58.9007L27.8508 58.9166Z" fill="#F3C395"/>
<path d="M115.14 66.3346C115.219 67.3988 114.887 68.0659 114.364 68.6537C110.183 73.4349 107.919 79.0897 106.636 85.2052C106.288 86.873 106.256 89.1286 103.865 89.0174C101.838 88.9221 101.79 86.8254 101.283 85.3005C99.5414 79.9157 97.7994 74.5626 93.8403 70.2421C92.13 68.3678 92.1142 66.8587 93.7612 64.8097C96.8809 60.918 99.098 56.5975 100.745 51.9275C101.077 50.9744 101.568 50.0849 102.344 49.4018C104.197 47.7658 106.398 47.9246 107.998 49.8307C108.742 50.7202 109.106 51.8004 109.407 52.8964C110.579 57.2328 111.134 61.8234 114.617 65.2068C114.95 65.5245 115.029 66.0963 115.124 66.3187L115.14 66.3346Z" fill="#F3C395"/>
<path d="M117.991 26.8619C119.764 26.8302 120.635 27.5291 121.158 28.6092C123.09 32.5803 125.75 36.0908 128.205 39.7442C130.105 42.5716 129.994 43.9217 127.809 46.5109C125.703 49.0365 123.834 51.6892 122.441 54.6754C122.219 55.1202 121.981 55.5809 121.696 55.978C120.002 58.2653 117.69 58.3288 116.185 55.8985C114.047 52.4358 111.434 49.4971 108.251 46.9239C105.432 44.6365 105.401 42.381 108.156 39.9824C111.466 37.0915 114.016 33.8034 115.235 29.5464C115.679 27.9739 116.66 26.9096 117.975 26.8619H117.991Z" fill="#F3C395"/>
<path d="M164.977 33.4063C164.977 34.9471 164.264 35.9955 163.346 36.8691C160.558 39.5218 158.579 42.6986 156.932 46.1138C156.71 46.5585 156.488 47.0192 156.188 47.4322C154.572 49.6242 152.498 49.6719 150.993 47.4322C149.885 45.7643 149.061 43.9059 148.095 42.1427C146.718 39.6012 145.213 37.1868 142.949 35.2489C140.652 33.2792 140.526 31.3096 142.949 29.5941C146.908 26.8143 148.697 22.732 150.756 18.7292C151.389 17.5061 152.007 16.2671 152.719 15.0758C153.4 13.9321 154.351 13.1538 155.808 13.2808C157.296 13.4238 157.945 14.4563 158.341 15.727C158.484 16.2036 158.642 16.696 158.721 17.1884C159.387 21.7472 161.303 25.8295 163.599 29.7529C164.296 30.9442 165.056 32.1197 165.008 33.4063H164.977ZM153.416 40.2366C155.19 37.9969 156.647 36.1384 158.151 34.2958C158.785 33.5175 158.88 32.7709 158.405 31.8814C157.296 29.8164 156.219 27.7356 154.826 25.0829C153.068 27.7515 151.278 29.7847 149.172 31.5161C148.475 32.0879 148.555 32.8662 149.109 33.5016C150.756 35.3918 151.864 37.6633 153.416 40.2207V40.2366Z" fill="#F3C395"/>
<path d="M22.4665 40.4113C22.4506 42.1745 21.7538 43.2228 20.8828 44.16C18.6024 46.5744 16.7654 49.243 15.6886 52.4199C15.2135 53.8018 14.3741 54.9296 12.7747 55.0249C11.1752 55.1361 10.2567 54.056 9.5441 52.8011C8.86314 51.5939 8.19802 50.3708 7.54873 49.1477C6.47187 47.1145 5.07828 45.399 3.24128 43.9535C0.438266 41.7774 0.232394 40.0618 2.73452 37.7745C6.45603 34.3752 9.29072 30.4677 11.0327 25.7659C11.5395 24.384 12.4105 23.288 14.0574 23.3833C15.4985 23.4627 16.417 24.4634 16.6704 25.7659C17.5256 30.3089 19.6159 34.3117 21.833 38.2828C22.2448 39.0294 22.3556 39.9507 22.4823 40.3954L22.4665 40.4113ZM13.709 35.3601C7.84962 40.2207 7.83378 40.3319 11.7137 45.0019C11.8404 45.1607 12.1571 45.1766 12.3946 45.256C17.288 40.6655 17.3197 40.4113 13.7249 35.3442L13.709 35.3601Z" fill="#F3C395"/>
</svg>
